<svg height="512" viewBox="0 0 58 60" width="512" xmlns="http://www.w3.org/2000/svg"><g id="Page-1" fill="none" fill-rule="evenodd"><g id="001---Atomic-Sign" fill-rule="nonzero"><path id="Shape" d="m29 60c-7.29 0-13-13.178-13-30s5.71-30 13-30 13 13.178 13 30-5.71 30-13 30zm0-58c-5.962 0-11 12.822-11 28s5.038 28 11 28 11-12.822 11-28-5.038-28-11-28z" fill="#3b97d3"/><path id="Shape" d="m11.944 49c-1.4356865.0190095-2.86773352-.1490712-4.26-.5-2.0027625-.4175359-3.74836451-1.6343647-4.833-3.369-3.666-6.367 4.949-17.998 19.608-26.482 10.484-6.066 21.417-8.874 27.857-7.149 2.0027625.4175359 3.7483645 1.6343647 4.833 3.369 3.666 6.364-4.946 17.995-19.608 26.479-8.432 4.881-17.155 7.652-23.597 7.652zm11.517-28.619c-13.236 7.659-21.881 18.535-18.877 23.749.82695699 1.2667652 2.13124685 2.1450688 3.616 2.435 5.861 1.57 16.445-1.221 26.338-6.946 13.237-7.659 21.882-18.535 18.878-23.749-.826957-1.2667652-2.1312468-2.1450688-3.616-2.435-5.862-1.57-16.445 1.221-26.338 6.946z" fill="#f0c419"/><path id="Shape" d="m46.056 49c-6.442 0-15.165-2.77-23.6-7.648-14.656-8.485-23.271-20.116-19.605-26.48 1.08403856-1.7357724 2.82972584-2.9537441 4.833-3.372 6.44-1.727 17.374 1.081 27.857 7.146 14.659 8.487 23.274 20.118 19.608 26.482-1.0840386 1.7357724-2.8297258 2.9537441-4.833 3.372-1.3922768.3508729-2.8243165.5189527-4.26.5zm-34.138-36c-1.2525312-.017399-2.50200757.1281547-3.717.433-1.48545453.2901662-2.79020108 1.1692559-3.617 2.437-3 5.214 5.641 16.09 18.877 23.749 9.893 5.725 20.478 8.516 26.338 6.946 1.4851203-.2896814 2.7898117-1.1680125 3.617-2.435 3-5.214-5.641-16.09-18.877-23.749-8.056-4.662-16.572-7.381-22.621-7.381z" fill="#4fba6f"/><circle id="Oval" cx="29" cy="30" fill="#e64c3c" r="7"/><path id="Shape" d="m26 31c-.5522847 0-1-.4477153-1-1 0-2.209139 1.790861-4 4-4 .5522847 0 1 .4477153 1 1s-.4477153 1-1 1c-1.1045695 0-2 .8954305-2 2 0 .5522847-.4477153 1-1 1z" fill="#fb7b76"/><g fill="#e64c3c"><circle id="Oval" cx="29" cy="8" r="2"/><circle id="Oval" cx="2" cy="30" r="2"/><circle id="Oval" cx="56" cy="30" r="2"/><circle id="Oval" cx="10" cy="41" r="2"/></g></g></g></svg>